# xmcd
#
# Track frame offsets: 
#        150
#        15480
#        28485
#        47577
#        60622
#        79950
#        92810
#        107600
#        121882
#        136300
#        154765
#        169080
#        183695
#        199827
#        213620
#
# Disc length: 3071 seconds
#
# Revision: 2
# Processed by: cddbd v1.5.2PL0 Copyright (c) Steve Scherf et al.
# Submitted via: ExactAudioCopy v1.0b3
#
DISCID=d20bfd0f
DTITLE=???? - Super Best Of Yumi Arai [Disc 1]
DYEAR=1900
DGENRE=J-Pop
TTITLE0=?????
TTITLE1=?????????????
TTITLE2=??????????
TTITLE3=??????
TTITLE4=????
TTITLE5=???????
TTITLE6=????
TTITLE7=?????
TTITLE8=???????????
TTITLE9=????????
TTITLE10=12???
TTITLE11=????
TTITLE12=COBALT HOUR
TTITLE13=???????
TTITLE14=???????????
EXTD=
EXTT0=
EXTT1=
EXTT2=
EXTT3=
EXTT4=
EXTT5=
EXTT6=
EXTT7=
EXTT8=
EXTT9=
EXTT10=
EXTT11=
EXTT12=
EXTT13=
EXTT14=
PLAYORDER=
